<?xml version="1.0" encoding="UTF-8" standalone="no"?>
<svg
   xmlns:osb="http://www.openswatchbook.org/uri/2009/osb"
   xmlns:dc="http://purl.org/dc/elements/1.1/"
   xmlns:cc="http://creativecommons.org/ns#"
   xmlns:rdf="http://www.w3.org/1999/02/22-rdf-syntax-ns#"
   xmlns:svg="http://www.w3.org/2000/svg"
   xmlns="http://www.w3.org/2000/svg"
   xmlns:sodipodi="http://sodipodi.sourceforge.net/DTD/sodipodi-0.dtd"
   xmlns:inkscape="http://www.inkscape.org/namespaces/inkscape"
   inkscape:version="1.0beta2 (2b71d25, 2019-12-03)"
   sodipodi:docname="anologo.svg"
   id="svg16"
   version="1.1"
   viewBox="0 0 200 200"
   height="200mm"
   width="200mm">
  <defs
     id="defs10">
    <linearGradient
       osb:paint="gradient"
       id="linearGradient1034"
       inkscape:collect="always">
      <stop
         id="stop1030"
         offset="0"
         style="stop-color:#00ff00;stop-opacity:1;" />
      <stop
         id="stop1032"
         offset="1"
         style="stop-color:#00ff00;stop-opacity:0;" />
    </linearGradient>
  </defs>
  <sodipodi:namedview
     inkscape:window-maximized="0"
     inkscape:window-y="23"
     inkscape:window-x="0"
     inkscape:window-height="855"
     inkscape:window-width="1440"
     inkscape:object-paths="true"
     showguides="false"
     showgrid="true"
     inkscape:document-rotation="0"
     inkscape:current-layer="layer1"
     inkscape:document-units="mm"
     inkscape:cy="320.83234"
     inkscape:cx="360.05682"
     inkscape:zoom="0.99487331"
     inkscape:pageshadow="2"
     inkscape:pageopacity="0.0"
     borderopacity="1.0"
     bordercolor="#666666"
     pagecolor="#ffffff"
     id="base">
    <inkscape:grid
       id="grid18"
       type="xygrid" />
  </sodipodi:namedview>
  <metadata
     id="metadata13">
    <rdf:RDF>
      <cc:Work
         rdf:about="">
        <dc:format>image/svg+xml</dc:format>
        <dc:type
           rdf:resource="http://purl.org/dc/dcmitype/StillImage" />
        <dc:title></dc:title>
      </cc:Work>
    </rdf:RDF>
  </metadata>
  <g
     id="layer1"
     inkscape:groupmode="layer"
     inkscape:label="Layer 1">
    <path
       inkscape:connector-curvature="0"
       d="M 52.133758,2.3011585 2.6205691,42.200264 18.801024,68.961039 C 31.733245,49.438748 46.356851,27.661692 58.440891,10.62115 Z M 149.5018,4.4828016 125.13665,33.955386 c 9.85605,25.163066 19.01573,50.768351 31.22342,74.435834 L 197.35665,46.563562 Z M 63.0376,16.684195 C 50.655668,34.21125 35.780012,56.310595 22.878817,75.705281 l 21.022274,34.767589 c 6.078761,2.7011 14.365894,6.49714 30.308857,13.74257 18.326043,8.32842 36.054022,18.25677 54.817162,25.39582 l 22.86251,-34.47812 C 139.24657,91.424031 129.91293,65.610463 120.00542,40.161888 L 99.574037,64.876875 Z m -12.439937,104.865665 46.281553,76.5443 27.992374,-42.21447 c -18.24758,-7.09023 -35.547447,-16.73407 -53.416362,-24.85585 -9.421622,-4.28232 -15.648786,-7.11603 -20.857565,-9.47398 z"
       style="fill:none;stroke:#05af3d;stroke-width:3.49692;stroke-linecap:round;stroke-linejoin:miter;stroke-miterlimit:4;stroke-dasharray:none;stroke-dashoffset:0;stroke-opacity:1"
       id="path845" />
    <path
       transform="scale(0.26458333)"
       inkscape:connector-curvature="0"
       id="path968"
       d="m 158.27604,364.94497 c -8.46391,-12.70244 -15.38892,-23.62532 -15.38892,-24.27307 0,-0.64776 21.80598,-18.61101 48.45773,-39.91834 l 48.45772,-38.7406 4.2582,4.89579 c 7.98325,9.17861 8.92035,6.70113 -16.41133,43.38755 -12.86759,18.63537 -29.89326,43.73756 -37.83484,55.78263 -7.94157,12.04507 -14.82407,21.91391 -15.29444,21.93075 -0.47036,0.0168 -7.78022,-10.36228 -16.24412,-23.06471 z"
       style="fill:#000000;stroke-width:12.00000015;stroke-miterlimit:4;stroke-dasharray:none;fill-opacity:0" />
    <path
       transform="scale(0.26458333)"
       inkscape:connector-curvature="0"
       id="path970"
       d="m 386.18807,536.14277 c -8.73573,-3.38234 -32.53974,-13.40666 -52.89779,-22.27627 -20.35804,-8.86961 -52.11724,-22.24387 -70.57599,-29.72059 -18.45875,-7.4767 -34.04702,-14.12813 -34.64059,-14.78096 -3.01315,-3.31393 -42.35021,-63.43806 -42.35021,-64.72954 0,-1.80225 21.10251,-33.55279 53.51271,-80.51449 l 23.68493,-34.31897 37.63292,45.14839 c 20.69811,24.83162 38.43947,45.14839 39.42523,45.14839 0.98578,0 10.52327,-10.46878 21.19443,-23.26396 l 19.40212,-23.26397 15.75221,36.25927 c 14.4247,33.20352 38.29788,82.89694 47.67288,99.23387 l 3.82278,6.66161 -22.15427,33.36808 c -12.18486,18.35244 -22.47918,33.33 -22.87625,33.28347 -0.39708,-0.0465 -7.86938,-2.852 -16.60511,-6.23433 z"
       style="fill:#00ff00;stroke-width:1.44392;fill-opacity:0" />
    <path
       transform="scale(0.26458333)"
       inkscape:connector-curvature="0"
       id="path972"
       d="M 449.8819,443.9923 C 438.93266,423.57648 417.6941,377.2417 397.28245,329.23952 l -4.43481,-10.42938 23.17846,-27.83457 c 12.74816,-15.30901 23.40619,-28.07864 23.68452,-28.37695 0.74376,-0.79718 97.36735,76.68552 97.36735,78.07913 0,1.39676 -77.69428,118.11476 -78.62404,118.11476 -0.34899,0 -4.2064,-6.66009 -8.57203,-14.80021 z"
       style="fill:#00ff00;stroke-width:1.44392;fill-opacity:0" />
    <path
       transform="scale(0.26458333)"
       inkscape:connector-curvature="0"
       id="path974"
       d="m 293.31537,567.48607 c -25.66311,-38.49702 -46.44507,-70.20971 -46.18213,-70.47265 0.67021,-0.67022 49.69923,19.5067 84.18577,34.64499 15.88315,6.97209 35.70099,15.29136 44.03964,18.48725 8.33865,3.19589 15.70261,6.2899 16.36438,6.87557 0.66175,0.58567 -10.71072,18.92863 -25.27214,40.76213 l -26.47531,39.69728 z"
       style="fill:#00ff00;stroke-width:1.44392;fill-opacity:0" />
    <path
       transform="scale(0.26458333)"
       inkscape:connector-curvature="0"
       id="path976"
       d="m 294.86813,568.21079 c -24.80966,-37.42645 -44.85791,-68.29867 -44.55166,-68.60492 0.77356,-0.77356 28.97903,10.6162 76.67077,30.96074 22.23641,9.48569 45.78522,19.37999 52.33069,21.98733 l 11.90086,4.74063 -2.51536,4.35823 c -1.38345,2.39703 -12.91294,20.164 -25.62109,39.48216 l -23.10572,35.12393 z"
       style="fill:#00ff00;stroke-width:1.44392;fill-opacity:0" />
    <path
       transform="scale(0.26458333)"
       inkscape:connector-curvature="0"
       id="path978"
       d="m 294.85826,568.21904 c -24.81837,-37.41686 -44.85259,-68.30236 -44.52051,-68.63445 0.81511,-0.81511 18.53006,6.33449 75.92753,30.64371 26.60428,11.26755 52.10123,21.96886 56.6599,23.78069 l 8.2885,3.29424 -2.51281,4.3539 c -1.38204,2.39465 -12.90904,20.15761 -25.61556,39.47324 l -23.10276,35.11934 z"
       style="fill:#00ff00;stroke-width:1.44392;fill-opacity:0" />
  </g>
</svg>
